<mxfile host="Electron" modified="2023-06-23T03:46:32.287Z" agent="Mozilla/5.0 (Windows NT 10.0; Win64; x64) AppleWebKit/537.36 (KHTML, like Gecko) draw.io/21.2.8 Chrome/112.0.5615.165 Electron/24.2.0 Safari/537.36" etag="p7x9h3zuCjxeczClSQuG" version="21.2.8" type="device" pages="2">
  <diagram id="C5RBs43oDa-KdzZeNtuy" name="Page-1">
    <mxGraphModel dx="1247" dy="2007" grid="1" gridSize="10" guides="1" tooltips="1" connect="1" arrows="1" fold="1" page="1" pageScale="1" pageWidth="827" pageHeight="1169" math="0" shadow="0">
      <root>
        <mxCell id="WIyWlLk6GJQsqaUBKTNV-0" />
        <mxCell id="WIyWlLk6GJQsqaUBKTNV-1" parent="WIyWlLk6GJQsqaUBKTNV-0" />
        <mxCell id="L8b3ED5JR122sr8RbVxD-0" style="edgeStyle=orthogonalEdgeStyle;rounded=0;orthogonalLoop=1;jettySize=auto;html=1;" parent="WIyWlLk6GJQsqaUBKTNV-1" source="L8b3ED5JR122sr8RbVxD-1" edge="1">
          <mxGeometry relative="1" as="geometry">
            <mxPoint x="620" y="90" as="targetPoint" />
          </mxGeometry>
        </mxCell>
        <mxCell id="WIyWlLk6GJQsqaUBKTNV-3" value="Create SimCase" style="rounded=1;whiteSpace=wrap;html=1;fontSize=12;glass=0;strokeWidth=1;shadow=0;" parent="WIyWlLk6GJQsqaUBKTNV-1" vertex="1">
          <mxGeometry x="560" width="122" height="40" as="geometry" />
        </mxCell>
        <mxCell id="L8b3ED5JR122sr8RbVxD-2" value="" style="edgeStyle=orthogonalEdgeStyle;rounded=0;orthogonalLoop=1;jettySize=auto;html=1;" parent="WIyWlLk6GJQsqaUBKTNV-1" source="WIyWlLk6GJQsqaUBKTNV-3" target="L8b3ED5JR122sr8RbVxD-1" edge="1">
          <mxGeometry relative="1" as="geometry">
            <mxPoint x="620" y="40" as="sourcePoint" />
            <mxPoint x="620" y="90" as="targetPoint" />
          </mxGeometry>
        </mxCell>
        <mxCell id="L8b3ED5JR122sr8RbVxD-6" style="edgeStyle=orthogonalEdgeStyle;rounded=0;orthogonalLoop=1;jettySize=auto;html=1;" parent="WIyWlLk6GJQsqaUBKTNV-1" source="L8b3ED5JR122sr8RbVxD-1" target="L8b3ED5JR122sr8RbVxD-3" edge="1">
          <mxGeometry relative="1" as="geometry" />
        </mxCell>
        <mxCell id="L8b3ED5JR122sr8RbVxD-1" value="Set settings in SimCase" style="rounded=1;whiteSpace=wrap;html=1;fontSize=12;glass=0;strokeWidth=1;shadow=0;" parent="WIyWlLk6GJQsqaUBKTNV-1" vertex="1">
          <mxGeometry x="560" y="80" width="122" height="40" as="geometry" />
        </mxCell>
        <mxCell id="L8b3ED5JR122sr8RbVxD-7" style="edgeStyle=orthogonalEdgeStyle;rounded=0;orthogonalLoop=1;jettySize=auto;html=1;" parent="WIyWlLk6GJQsqaUBKTNV-1" source="L8b3ED5JR122sr8RbVxD-3" target="L8b3ED5JR122sr8RbVxD-4" edge="1">
          <mxGeometry relative="1" as="geometry" />
        </mxCell>
        <mxCell id="L8b3ED5JR122sr8RbVxD-8" style="edgeStyle=orthogonalEdgeStyle;rounded=0;orthogonalLoop=1;jettySize=auto;html=1;" parent="WIyWlLk6GJQsqaUBKTNV-1" source="L8b3ED5JR122sr8RbVxD-3" target="L8b3ED5JR122sr8RbVxD-5" edge="1">
          <mxGeometry relative="1" as="geometry" />
        </mxCell>
        <mxCell id="L8b3ED5JR122sr8RbVxD-3" value="Add domains" style="rounded=1;whiteSpace=wrap;html=1;fontSize=12;glass=0;strokeWidth=1;shadow=0;" parent="WIyWlLk6GJQsqaUBKTNV-1" vertex="1">
          <mxGeometry x="560" y="160" width="122" height="40" as="geometry" />
        </mxCell>
        <mxCell id="L8b3ED5JR122sr8RbVxD-10" style="edgeStyle=orthogonalEdgeStyle;rounded=0;orthogonalLoop=1;jettySize=auto;html=1;" parent="WIyWlLk6GJQsqaUBKTNV-1" source="L8b3ED5JR122sr8RbVxD-4" target="L8b3ED5JR122sr8RbVxD-9" edge="1">
          <mxGeometry relative="1" as="geometry">
            <Array as="points">
              <mxPoint x="550" y="390" />
              <mxPoint x="620" y="390" />
            </Array>
          </mxGeometry>
        </mxCell>
        <mxCell id="L8b3ED5JR122sr8RbVxD-4" value="Set domain connections" style="rounded=1;whiteSpace=wrap;html=1;fontSize=12;glass=0;strokeWidth=1;shadow=0;" parent="WIyWlLk6GJQsqaUBKTNV-1" vertex="1">
          <mxGeometry x="490" y="240" width="122" height="40" as="geometry" />
        </mxCell>
        <mxCell id="V0iHSe2pkhX4RVkUJQwd-2" style="edgeStyle=orthogonalEdgeStyle;rounded=0;orthogonalLoop=1;jettySize=auto;html=1;" edge="1" parent="WIyWlLk6GJQsqaUBKTNV-1" source="L8b3ED5JR122sr8RbVxD-5" target="V0iHSe2pkhX4RVkUJQwd-0">
          <mxGeometry relative="1" as="geometry" />
        </mxCell>
        <mxCell id="L8b3ED5JR122sr8RbVxD-5" value="Add Valves" style="rounded=1;whiteSpace=wrap;html=1;fontSize=12;glass=0;strokeWidth=1;shadow=0;" parent="WIyWlLk6GJQsqaUBKTNV-1" vertex="1">
          <mxGeometry x="629.5" y="240" width="122" height="40" as="geometry" />
        </mxCell>
        <mxCell id="L8b3ED5JR122sr8RbVxD-17" value="" style="edgeStyle=orthogonalEdgeStyle;rounded=0;orthogonalLoop=1;jettySize=auto;html=1;" parent="WIyWlLk6GJQsqaUBKTNV-1" source="L8b3ED5JR122sr8RbVxD-9" target="L8b3ED5JR122sr8RbVxD-15" edge="1">
          <mxGeometry relative="1" as="geometry" />
        </mxCell>
        <mxCell id="L8b3ED5JR122sr8RbVxD-9" value="Set initial conditions for domain (field quantities)" style="rounded=1;whiteSpace=wrap;html=1;fontSize=12;glass=0;strokeWidth=1;shadow=0;" parent="WIyWlLk6GJQsqaUBKTNV-1" vertex="1">
          <mxGeometry x="540" y="440" width="162" height="40" as="geometry" />
        </mxCell>
        <mxCell id="L8b3ED5JR122sr8RbVxD-12" value="" style="endArrow=none;dashed=1;html=1;rounded=0;" parent="WIyWlLk6GJQsqaUBKTNV-1" edge="1">
          <mxGeometry width="50" height="50" relative="1" as="geometry">
            <mxPoint x="440" y="410" as="sourcePoint" />
            <mxPoint x="840" y="410" as="targetPoint" />
          </mxGeometry>
        </mxCell>
        <mxCell id="L8b3ED5JR122sr8RbVxD-13" value="&lt;h1&gt;Setting up the simulation case&lt;/h1&gt;&lt;p&gt;This is what the user should be doing; either in python library, or directly in main.cpp&lt;/p&gt;" style="text;html=1;strokeColor=none;fillColor=none;spacing=5;spacingTop=-20;whiteSpace=wrap;overflow=hidden;rounded=0;" parent="WIyWlLk6GJQsqaUBKTNV-1" vertex="1">
          <mxGeometry x="760" width="192" height="170" as="geometry" />
        </mxCell>
        <mxCell id="L8b3ED5JR122sr8RbVxD-14" value="&lt;h1&gt;Initialisation&lt;/h1&gt;&lt;p&gt;Before any time iteration&lt;/p&gt;" style="text;html=1;strokeColor=none;fillColor=none;spacing=5;spacingTop=-20;whiteSpace=wrap;overflow=hidden;rounded=0;" parent="WIyWlLk6GJQsqaUBKTNV-1" vertex="1">
          <mxGeometry x="800" y="410" width="192" height="70" as="geometry" />
        </mxCell>
        <mxCell id="L8b3ED5JR122sr8RbVxD-19" value="no" style="edgeStyle=orthogonalEdgeStyle;rounded=0;orthogonalLoop=1;jettySize=auto;html=1;" parent="WIyWlLk6GJQsqaUBKTNV-1" source="L8b3ED5JR122sr8RbVxD-22" target="L8b3ED5JR122sr8RbVxD-18" edge="1">
          <mxGeometry relative="1" as="geometry" />
        </mxCell>
        <mxCell id="L8b3ED5JR122sr8RbVxD-15" value="Set initial conditions for valves" style="rounded=1;whiteSpace=wrap;html=1;fontSize=12;glass=0;strokeWidth=1;shadow=0;" parent="WIyWlLk6GJQsqaUBKTNV-1" vertex="1">
          <mxGeometry x="560" y="520" width="122" height="40" as="geometry" />
        </mxCell>
        <mxCell id="L8b3ED5JR122sr8RbVxD-16" value="The initial condition of the valves is based on the field it is placed in, as it is set to a &#39;neutral&#39; position. It can therefore not be done in parallel with the initialisation of the domains." style="text;html=1;strokeColor=none;fillColor=none;align=center;verticalAlign=middle;whiteSpace=wrap;rounded=0;" parent="WIyWlLk6GJQsqaUBKTNV-1" vertex="1">
          <mxGeometry x="790" y="495" width="212" height="90" as="geometry" />
        </mxCell>
        <mxCell id="L8b3ED5JR122sr8RbVxD-26" value="" style="edgeStyle=orthogonalEdgeStyle;rounded=0;orthogonalLoop=1;jettySize=auto;html=1;" parent="WIyWlLk6GJQsqaUBKTNV-1" source="L8b3ED5JR122sr8RbVxD-18" target="L8b3ED5JR122sr8RbVxD-25" edge="1">
          <mxGeometry relative="1" as="geometry" />
        </mxCell>
        <mxCell id="L8b3ED5JR122sr8RbVxD-18" value="Copy values from current time step to runge-kutta buffer" style="rounded=1;whiteSpace=wrap;html=1;fontSize=12;glass=0;strokeWidth=1;shadow=0;" parent="WIyWlLk6GJQsqaUBKTNV-1" vertex="1">
          <mxGeometry x="515" y="800" width="212" height="40" as="geometry" />
        </mxCell>
        <mxCell id="L8b3ED5JR122sr8RbVxD-20" value="" style="endArrow=none;dashed=1;html=1;rounded=0;" parent="WIyWlLk6GJQsqaUBKTNV-1" edge="1">
          <mxGeometry width="50" height="50" relative="1" as="geometry">
            <mxPoint x="440" y="600" as="sourcePoint" />
            <mxPoint x="840" y="600" as="targetPoint" />
          </mxGeometry>
        </mxCell>
        <mxCell id="NF5cSW5yTkeMt2E_4qOm-5" value="" style="edgeStyle=orthogonalEdgeStyle;rounded=0;orthogonalLoop=1;jettySize=auto;html=1;" parent="WIyWlLk6GJQsqaUBKTNV-1" source="L8b3ED5JR122sr8RbVxD-21" target="NF5cSW5yTkeMt2E_4qOm-3" edge="1">
          <mxGeometry relative="1" as="geometry" />
        </mxCell>
        <mxCell id="L8b3ED5JR122sr8RbVxD-21" value="Update ghost cells:&lt;br&gt;synchronise with linked domains, or apply boundary conditions." style="rounded=1;whiteSpace=wrap;html=1;fontSize=12;glass=0;strokeWidth=1;shadow=0;" parent="WIyWlLk6GJQsqaUBKTNV-1" vertex="1">
          <mxGeometry x="195" y="1040" width="372" height="40" as="geometry" />
        </mxCell>
        <mxCell id="L8b3ED5JR122sr8RbVxD-23" value="" style="edgeStyle=orthogonalEdgeStyle;rounded=0;orthogonalLoop=1;jettySize=auto;html=1;" parent="WIyWlLk6GJQsqaUBKTNV-1" source="L8b3ED5JR122sr8RbVxD-15" target="L8b3ED5JR122sr8RbVxD-22" edge="1">
          <mxGeometry relative="1" as="geometry">
            <mxPoint x="620" y="560" as="sourcePoint" />
            <mxPoint x="620" y="670" as="targetPoint" />
          </mxGeometry>
        </mxCell>
        <mxCell id="NF5cSW5yTkeMt2E_4qOm-32" value="yes" style="edgeStyle=orthogonalEdgeStyle;rounded=0;orthogonalLoop=1;jettySize=auto;html=1;" parent="WIyWlLk6GJQsqaUBKTNV-1" source="L8b3ED5JR122sr8RbVxD-22" target="NF5cSW5yTkeMt2E_4qOm-29" edge="1">
          <mxGeometry x="-0.913" y="5" relative="1" as="geometry">
            <mxPoint as="offset" />
          </mxGeometry>
        </mxCell>
        <mxCell id="L8b3ED5JR122sr8RbVxD-22" value="t &amp;gt; t_end?" style="rhombus;whiteSpace=wrap;html=1;" parent="WIyWlLk6GJQsqaUBKTNV-1" vertex="1">
          <mxGeometry x="550" y="650" width="142" height="90" as="geometry" />
        </mxCell>
        <mxCell id="NF5cSW5yTkeMt2E_4qOm-0" style="edgeStyle=orthogonalEdgeStyle;rounded=0;orthogonalLoop=1;jettySize=auto;html=1;" parent="WIyWlLk6GJQsqaUBKTNV-1" source="L8b3ED5JR122sr8RbVxD-25" target="L8b3ED5JR122sr8RbVxD-21" edge="1">
          <mxGeometry relative="1" as="geometry" />
        </mxCell>
        <mxCell id="NF5cSW5yTkeMt2E_4qOm-7" value="no" style="edgeStyle=orthogonalEdgeStyle;rounded=0;orthogonalLoop=1;jettySize=auto;html=1;" parent="WIyWlLk6GJQsqaUBKTNV-1" source="L8b3ED5JR122sr8RbVxD-25" target="NF5cSW5yTkeMt2E_4qOm-6" edge="1">
          <mxGeometry x="-0.9231" y="-1" relative="1" as="geometry">
            <mxPoint as="offset" />
          </mxGeometry>
        </mxCell>
        <mxCell id="NF5cSW5yTkeMt2E_4qOm-26" value="yes" style="edgeStyle=orthogonalEdgeStyle;rounded=0;orthogonalLoop=1;jettySize=auto;html=1;" parent="WIyWlLk6GJQsqaUBKTNV-1" source="L8b3ED5JR122sr8RbVxD-25" target="NF5cSW5yTkeMt2E_4qOm-25" edge="1">
          <mxGeometry x="-0.8789" y="-5" relative="1" as="geometry">
            <mxPoint as="offset" />
          </mxGeometry>
        </mxCell>
        <mxCell id="L8b3ED5JR122sr8RbVxD-25" value="finished runge&lt;br&gt;kutta iter?" style="rhombus;whiteSpace=wrap;html=1;" parent="WIyWlLk6GJQsqaUBKTNV-1" vertex="1">
          <mxGeometry x="550" y="890" width="142" height="90" as="geometry" />
        </mxCell>
        <mxCell id="NF5cSW5yTkeMt2E_4qOm-1" value="Parallel for all domains" style="text;html=1;strokeColor=none;fillColor=none;align=center;verticalAlign=middle;whiteSpace=wrap;rounded=0;" parent="WIyWlLk6GJQsqaUBKTNV-1" vertex="1">
          <mxGeometry x="320" y="970" width="139" height="30" as="geometry" />
        </mxCell>
        <mxCell id="NF5cSW5yTkeMt2E_4qOm-2" value="Parallel for all domains" style="text;html=1;strokeColor=none;fillColor=none;align=center;verticalAlign=middle;whiteSpace=wrap;rounded=0;" parent="WIyWlLk6GJQsqaUBKTNV-1" vertex="1">
          <mxGeometry x="740" y="805" width="139" height="30" as="geometry" />
        </mxCell>
        <mxCell id="NF5cSW5yTkeMt2E_4qOm-13" style="edgeStyle=orthogonalEdgeStyle;rounded=0;orthogonalLoop=1;jettySize=auto;html=1;" parent="WIyWlLk6GJQsqaUBKTNV-1" source="NF5cSW5yTkeMt2E_4qOm-3" target="NF5cSW5yTkeMt2E_4qOm-10" edge="1">
          <mxGeometry relative="1" as="geometry">
            <Array as="points">
              <mxPoint x="381" y="1410" />
              <mxPoint x="621" y="1410" />
            </Array>
          </mxGeometry>
        </mxCell>
        <mxCell id="NF5cSW5yTkeMt2E_4qOm-3" value="Calculate fluxes due to flow dispersion, and put these (delta) fluxes in the Flow Delta buffer." style="rounded=1;whiteSpace=wrap;html=1;fontSize=12;glass=0;strokeWidth=1;shadow=0;" parent="WIyWlLk6GJQsqaUBKTNV-1" vertex="1">
          <mxGeometry x="241.5" y="1120" width="279" height="40" as="geometry" />
        </mxCell>
        <mxCell id="NF5cSW5yTkeMt2E_4qOm-9" style="edgeStyle=orthogonalEdgeStyle;rounded=0;orthogonalLoop=1;jettySize=auto;html=1;entryX=0.5;entryY=0;entryDx=0;entryDy=0;" parent="WIyWlLk6GJQsqaUBKTNV-1" source="NF5cSW5yTkeMt2E_4qOm-6" target="NF5cSW5yTkeMt2E_4qOm-8" edge="1">
          <mxGeometry relative="1" as="geometry" />
        </mxCell>
        <mxCell id="NF5cSW5yTkeMt2E_4qOm-6" value="IValve::UpdateValveState()&lt;br&gt;Update valve deflections based on the values of the current time step/ runge kutta buffer. Note that the implementation of this changes per valve type (see under this main graph)" style="rounded=1;whiteSpace=wrap;html=1;fontSize=12;glass=0;strokeWidth=1;shadow=0;" parent="WIyWlLk6GJQsqaUBKTNV-1" vertex="1">
          <mxGeometry x="682" y="1040" width="278" height="80" as="geometry" />
        </mxCell>
        <mxCell id="NF5cSW5yTkeMt2E_4qOm-14" style="edgeStyle=orthogonalEdgeStyle;rounded=0;orthogonalLoop=1;jettySize=auto;html=1;" parent="WIyWlLk6GJQsqaUBKTNV-1" source="NF5cSW5yTkeMt2E_4qOm-8" target="NF5cSW5yTkeMt2E_4qOm-10" edge="1">
          <mxGeometry relative="1" as="geometry">
            <Array as="points">
              <mxPoint x="821" y="1410" />
              <mxPoint x="621" y="1410" />
            </Array>
          </mxGeometry>
        </mxCell>
        <mxCell id="NF5cSW5yTkeMt2E_4qOm-8" value="IValve::FillSourceTermBuffer()&lt;br&gt;Calculate fluxes due to valve throughput, and put these (delta) fluxes in Valve Source Term buffer." style="rounded=1;whiteSpace=wrap;html=1;fontSize=12;glass=0;strokeWidth=1;shadow=0;" parent="WIyWlLk6GJQsqaUBKTNV-1" vertex="1">
          <mxGeometry x="682" y="1160" width="278" height="50" as="geometry" />
        </mxCell>
        <mxCell id="NF5cSW5yTkeMt2E_4qOm-19" style="edgeStyle=orthogonalEdgeStyle;rounded=0;orthogonalLoop=1;jettySize=auto;html=1;" parent="WIyWlLk6GJQsqaUBKTNV-1" source="NF5cSW5yTkeMt2E_4qOm-10" target="NF5cSW5yTkeMt2E_4qOm-18" edge="1">
          <mxGeometry relative="1" as="geometry" />
        </mxCell>
        <mxCell id="NF5cSW5yTkeMt2E_4qOm-10" value="IValve::AddCachedTermsToSourceCells()&lt;br&gt;merge Flow Delta buffer and Valve Source Term Buffer into Next Time Step buffer using the runge-kutta buffer" style="rounded=1;whiteSpace=wrap;html=1;fontSize=12;glass=0;strokeWidth=1;shadow=0;" parent="WIyWlLk6GJQsqaUBKTNV-1" vertex="1">
          <mxGeometry x="481.5" y="1460" width="279" height="70" as="geometry" />
        </mxCell>
        <mxCell id="NF5cSW5yTkeMt2E_4qOm-11" value="Parallel for all domains (can be done if source/sink terms do NOT overlap)" style="text;html=1;strokeColor=none;fillColor=none;align=center;verticalAlign=middle;whiteSpace=wrap;rounded=0;" parent="WIyWlLk6GJQsqaUBKTNV-1" vertex="1">
          <mxGeometry x="810" y="1605" width="239" height="30" as="geometry" />
        </mxCell>
        <mxCell id="NF5cSW5yTkeMt2E_4qOm-15" value="Parallel for all valves" style="text;html=1;strokeColor=none;fillColor=none;align=center;verticalAlign=middle;whiteSpace=wrap;rounded=0;" parent="WIyWlLk6GJQsqaUBKTNV-1" vertex="1">
          <mxGeometry x="751.5" y="970" width="139" height="30" as="geometry" />
        </mxCell>
        <mxCell id="NF5cSW5yTkeMt2E_4qOm-22" style="edgeStyle=orthogonalEdgeStyle;rounded=0;orthogonalLoop=1;jettySize=auto;html=1;entryX=0;entryY=0.5;entryDx=0;entryDy=0;exitX=0.5;exitY=1;exitDx=0;exitDy=0;" parent="WIyWlLk6GJQsqaUBKTNV-1" source="NF5cSW5yTkeMt2E_4qOm-23" target="L8b3ED5JR122sr8RbVxD-25" edge="1">
          <mxGeometry relative="1" as="geometry">
            <Array as="points">
              <mxPoint x="621" y="1790" />
              <mxPoint x="150" y="1790" />
              <mxPoint x="150" y="935" />
            </Array>
          </mxGeometry>
        </mxCell>
        <mxCell id="NF5cSW5yTkeMt2E_4qOm-24" style="edgeStyle=orthogonalEdgeStyle;rounded=0;orthogonalLoop=1;jettySize=auto;html=1;" parent="WIyWlLk6GJQsqaUBKTNV-1" source="NF5cSW5yTkeMt2E_4qOm-17" target="NF5cSW5yTkeMt2E_4qOm-23" edge="1">
          <mxGeometry relative="1" as="geometry" />
        </mxCell>
        <mxCell id="NF5cSW5yTkeMt2E_4qOm-17" value="Empty the flow delta buffer and the valve delta buffer of the valves that have fed into here" style="rounded=1;whiteSpace=wrap;html=1;fontSize=12;glass=0;strokeWidth=1;shadow=0;" parent="WIyWlLk6GJQsqaUBKTNV-1" vertex="1">
          <mxGeometry x="481.5" y="1640" width="279" height="40" as="geometry" />
        </mxCell>
        <mxCell id="NF5cSW5yTkeMt2E_4qOm-20" style="edgeStyle=orthogonalEdgeStyle;rounded=0;orthogonalLoop=1;jettySize=auto;html=1;" parent="WIyWlLk6GJQsqaUBKTNV-1" source="NF5cSW5yTkeMt2E_4qOm-18" target="NF5cSW5yTkeMt2E_4qOm-17" edge="1">
          <mxGeometry relative="1" as="geometry" />
        </mxCell>
        <mxCell id="NF5cSW5yTkeMt2E_4qOm-18" value="Empty the flow delta buffer" style="rounded=1;whiteSpace=wrap;html=1;fontSize=12;glass=0;strokeWidth=1;shadow=0;" parent="WIyWlLk6GJQsqaUBKTNV-1" vertex="1">
          <mxGeometry x="481" y="1560" width="279" height="40" as="geometry" />
        </mxCell>
        <mxCell id="NF5cSW5yTkeMt2E_4qOm-21" value="" style="shape=curlyBracket;whiteSpace=wrap;html=1;rounded=1;flipH=1;labelPosition=right;verticalLabelPosition=middle;align=left;verticalAlign=middle;" parent="WIyWlLk6GJQsqaUBKTNV-1" vertex="1">
          <mxGeometry x="780" y="1460" width="20" height="300" as="geometry" />
        </mxCell>
        <mxCell id="NF5cSW5yTkeMt2E_4qOm-23" value="Copy values from the nextTimeStepBuffer into the RungeKutta buffer" style="rounded=1;whiteSpace=wrap;html=1;fontSize=12;glass=0;strokeWidth=1;shadow=0;" parent="WIyWlLk6GJQsqaUBKTNV-1" vertex="1">
          <mxGeometry x="481" y="1720" width="279" height="40" as="geometry" />
        </mxCell>
        <mxCell id="NF5cSW5yTkeMt2E_4qOm-27" style="edgeStyle=orthogonalEdgeStyle;rounded=0;orthogonalLoop=1;jettySize=auto;html=1;entryX=0;entryY=0.5;entryDx=0;entryDy=0;" parent="WIyWlLk6GJQsqaUBKTNV-1" source="V0iHSe2pkhX4RVkUJQwd-4" target="L8b3ED5JR122sr8RbVxD-22" edge="1">
          <mxGeometry relative="1" as="geometry">
            <Array as="points">
              <mxPoint x="1180" y="1820" />
              <mxPoint x="130" y="1820" />
              <mxPoint x="130" y="695" />
            </Array>
          </mxGeometry>
        </mxCell>
        <mxCell id="V0iHSe2pkhX4RVkUJQwd-6" style="edgeStyle=orthogonalEdgeStyle;rounded=0;orthogonalLoop=1;jettySize=auto;html=1;" edge="1" parent="WIyWlLk6GJQsqaUBKTNV-1" source="NF5cSW5yTkeMt2E_4qOm-25" target="V0iHSe2pkhX4RVkUJQwd-4">
          <mxGeometry relative="1" as="geometry" />
        </mxCell>
        <mxCell id="NF5cSW5yTkeMt2E_4qOm-25" value="Copy values from the nextTimeStepBuffer into the curren time step buffer" style="rounded=1;whiteSpace=wrap;html=1;fontSize=12;glass=0;strokeWidth=1;shadow=0;" parent="WIyWlLk6GJQsqaUBKTNV-1" vertex="1">
          <mxGeometry x="1040" y="1480" width="279" height="40" as="geometry" />
        </mxCell>
        <mxCell id="NF5cSW5yTkeMt2E_4qOm-28" value="&lt;h1&gt;Simulation&lt;/h1&gt;&lt;p&gt;the &#39;main&#39; loop&lt;/p&gt;" style="text;html=1;strokeColor=none;fillColor=none;spacing=5;spacingTop=-20;whiteSpace=wrap;overflow=hidden;rounded=0;" parent="WIyWlLk6GJQsqaUBKTNV-1" vertex="1">
          <mxGeometry x="820" y="610" width="192" height="70" as="geometry" />
        </mxCell>
        <mxCell id="NF5cSW5yTkeMt2E_4qOm-31" style="edgeStyle=orthogonalEdgeStyle;rounded=0;orthogonalLoop=1;jettySize=auto;html=1;" parent="WIyWlLk6GJQsqaUBKTNV-1" source="NF5cSW5yTkeMt2E_4qOm-29" target="NF5cSW5yTkeMt2E_4qOm-30" edge="1">
          <mxGeometry relative="1" as="geometry" />
        </mxCell>
        <mxCell id="NF5cSW5yTkeMt2E_4qOm-29" value="export final data" style="rounded=1;whiteSpace=wrap;html=1;fontSize=12;glass=0;strokeWidth=1;shadow=0;" parent="WIyWlLk6GJQsqaUBKTNV-1" vertex="1">
          <mxGeometry x="1280" y="1000" width="122" height="40" as="geometry" />
        </mxCell>
        <mxCell id="NF5cSW5yTkeMt2E_4qOm-30" value="Simulation done!" style="rounded=1;whiteSpace=wrap;html=1;fontSize=12;glass=0;strokeWidth=1;shadow=0;" parent="WIyWlLk6GJQsqaUBKTNV-1" vertex="1">
          <mxGeometry x="1280" y="1080" width="122" height="40" as="geometry" />
        </mxCell>
        <mxCell id="V0iHSe2pkhX4RVkUJQwd-3" style="edgeStyle=orthogonalEdgeStyle;rounded=0;orthogonalLoop=1;jettySize=auto;html=1;" edge="1" parent="WIyWlLk6GJQsqaUBKTNV-1" source="V0iHSe2pkhX4RVkUJQwd-0" target="L8b3ED5JR122sr8RbVxD-9">
          <mxGeometry relative="1" as="geometry">
            <Array as="points">
              <mxPoint x="691" y="390" />
              <mxPoint x="620" y="390" />
            </Array>
          </mxGeometry>
        </mxCell>
        <mxCell id="V0iHSe2pkhX4RVkUJQwd-0" value="Valve::OnRegister()" style="rounded=1;whiteSpace=wrap;html=1;fontSize=12;glass=0;strokeWidth=1;shadow=0;" vertex="1" parent="WIyWlLk6GJQsqaUBKTNV-1">
          <mxGeometry x="629.5" y="320" width="122" height="40" as="geometry" />
        </mxCell>
        <mxCell id="V0iHSe2pkhX4RVkUJQwd-4" value="Check records, and call back to python interface with values that have to be recorded" style="rounded=1;whiteSpace=wrap;html=1;fontSize=12;glass=0;strokeWidth=1;shadow=0;" vertex="1" parent="WIyWlLk6GJQsqaUBKTNV-1">
          <mxGeometry x="1040" y="1560" width="279" height="40" as="geometry" />
        </mxCell>
        <mxCell id="V0iHSe2pkhX4RVkUJQwd-20" value="Calculate force on each node from the pressure in the domain" style="rounded=1;whiteSpace=wrap;html=1;fontSize=12;glass=0;strokeWidth=1;shadow=0;" vertex="1" parent="WIyWlLk6GJQsqaUBKTNV-1">
          <mxGeometry x="120" y="2000" width="278" height="40" as="geometry" />
        </mxCell>
        <mxCell id="V0iHSe2pkhX4RVkUJQwd-21" value="&lt;h1&gt;ReedValve&lt;/h1&gt;&lt;p&gt;Update valve deflections&lt;/p&gt;" style="text;html=1;strokeColor=none;fillColor=none;spacing=5;spacingTop=-20;whiteSpace=wrap;overflow=hidden;rounded=0;" vertex="1" parent="WIyWlLk6GJQsqaUBKTNV-1">
          <mxGeometry x="120" y="1840" width="520" height="90" as="geometry" />
        </mxCell>
        <mxCell id="V0iHSe2pkhX4RVkUJQwd-22" value="Apply aerodynamic damping on the calculated forces" style="rounded=1;whiteSpace=wrap;html=1;fontSize=12;glass=0;strokeWidth=1;shadow=0;" vertex="1" parent="WIyWlLk6GJQsqaUBKTNV-1">
          <mxGeometry x="120" y="2080" width="278" height="40" as="geometry" />
        </mxCell>
        <mxCell id="V0iHSe2pkhX4RVkUJQwd-23" value="Time integrate the forces using the FEM module to obtain a new deflection" style="rounded=1;whiteSpace=wrap;html=1;fontSize=12;glass=0;strokeWidth=1;shadow=0;" vertex="1" parent="WIyWlLk6GJQsqaUBKTNV-1">
          <mxGeometry x="120" y="2160" width="278" height="40" as="geometry" />
        </mxCell>
        <mxCell id="V0iHSe2pkhX4RVkUJQwd-24" value="ReedValve::UpdateValveState()" style="shape=process;whiteSpace=wrap;html=1;backgroundOutline=1;" vertex="1" parent="WIyWlLk6GJQsqaUBKTNV-1">
          <mxGeometry x="120" y="1920" width="280" height="40" as="geometry" />
        </mxCell>
      </root>
    </mxGraphModel>
  </diagram>
  <diagram id="-IiZ2PysnVyD19nzv8Wj" name="Page-2">
    <mxGraphModel dx="1434" dy="964" grid="1" gridSize="10" guides="1" tooltips="1" connect="1" arrows="1" fold="1" page="1" pageScale="1" pageWidth="850" pageHeight="1100" math="0" shadow="0">
      <root>
        <mxCell id="0" />
        <mxCell id="1" parent="0" />
        <mxCell id="KLcIbOPdQp3D0pGYywUL-7" style="edgeStyle=orthogonalEdgeStyle;rounded=0;orthogonalLoop=1;jettySize=auto;html=1;entryX=0;entryY=0.5;entryDx=0;entryDy=0;" edge="1" parent="1" source="KLcIbOPdQp3D0pGYywUL-1" target="KLcIbOPdQp3D0pGYywUL-4">
          <mxGeometry relative="1" as="geometry" />
        </mxCell>
        <mxCell id="KLcIbOPdQp3D0pGYywUL-8" style="edgeStyle=orthogonalEdgeStyle;rounded=0;orthogonalLoop=1;jettySize=auto;html=1;entryX=0;entryY=0.5;entryDx=0;entryDy=0;dashed=1;" edge="1" parent="1" source="KLcIbOPdQp3D0pGYywUL-1" target="KLcIbOPdQp3D0pGYywUL-5">
          <mxGeometry relative="1" as="geometry" />
        </mxCell>
        <mxCell id="KLcIbOPdQp3D0pGYywUL-9" style="edgeStyle=orthogonalEdgeStyle;rounded=0;orthogonalLoop=1;jettySize=auto;html=1;entryX=0;entryY=0.5;entryDx=0;entryDy=0;dashed=1;" edge="1" parent="1" source="KLcIbOPdQp3D0pGYywUL-1" target="KLcIbOPdQp3D0pGYywUL-6">
          <mxGeometry relative="1" as="geometry" />
        </mxCell>
        <mxCell id="KLcIbOPdQp3D0pGYywUL-36" style="edgeStyle=orthogonalEdgeStyle;rounded=0;orthogonalLoop=1;jettySize=auto;html=1;entryX=0;entryY=0.5;entryDx=0;entryDy=0;dashed=1;" edge="1" parent="1" source="KLcIbOPdQp3D0pGYywUL-1" target="KLcIbOPdQp3D0pGYywUL-35">
          <mxGeometry relative="1" as="geometry" />
        </mxCell>
        <mxCell id="KLcIbOPdQp3D0pGYywUL-41" style="edgeStyle=orthogonalEdgeStyle;rounded=0;orthogonalLoop=1;jettySize=auto;html=1;entryX=0;entryY=0.5;entryDx=0;entryDy=0;" edge="1" parent="1" source="KLcIbOPdQp3D0pGYywUL-1" target="KLcIbOPdQp3D0pGYywUL-40">
          <mxGeometry relative="1" as="geometry" />
        </mxCell>
        <mxCell id="KLcIbOPdQp3D0pGYywUL-1" value="Simcase" style="rounded=0;whiteSpace=wrap;html=1;" vertex="1" parent="1">
          <mxGeometry x="80" y="80" width="120" height="40" as="geometry" />
        </mxCell>
        <mxCell id="KLcIbOPdQp3D0pGYywUL-17" style="edgeStyle=orthogonalEdgeStyle;rounded=0;orthogonalLoop=1;jettySize=auto;html=1;" edge="1" parent="1" source="KLcIbOPdQp3D0pGYywUL-4" target="KLcIbOPdQp3D0pGYywUL-10">
          <mxGeometry relative="1" as="geometry" />
        </mxCell>
        <mxCell id="KLcIbOPdQp3D0pGYywUL-18" style="edgeStyle=orthogonalEdgeStyle;rounded=0;orthogonalLoop=1;jettySize=auto;html=1;entryX=0;entryY=0.5;entryDx=0;entryDy=0;dashed=1;" edge="1" parent="1" source="KLcIbOPdQp3D0pGYywUL-4" target="KLcIbOPdQp3D0pGYywUL-11">
          <mxGeometry relative="1" as="geometry" />
        </mxCell>
        <mxCell id="KLcIbOPdQp3D0pGYywUL-19" style="edgeStyle=orthogonalEdgeStyle;rounded=0;orthogonalLoop=1;jettySize=auto;html=1;entryX=0;entryY=0.5;entryDx=0;entryDy=0;dashed=1;" edge="1" parent="1" source="KLcIbOPdQp3D0pGYywUL-4" target="KLcIbOPdQp3D0pGYywUL-12">
          <mxGeometry relative="1" as="geometry" />
        </mxCell>
        <mxCell id="KLcIbOPdQp3D0pGYywUL-20" style="edgeStyle=orthogonalEdgeStyle;rounded=0;orthogonalLoop=1;jettySize=auto;html=1;entryX=0;entryY=0.5;entryDx=0;entryDy=0;dashed=1;" edge="1" parent="1" source="KLcIbOPdQp3D0pGYywUL-4" target="KLcIbOPdQp3D0pGYywUL-13">
          <mxGeometry relative="1" as="geometry" />
        </mxCell>
        <mxCell id="KLcIbOPdQp3D0pGYywUL-21" style="edgeStyle=orthogonalEdgeStyle;rounded=0;orthogonalLoop=1;jettySize=auto;html=1;entryX=0;entryY=0.5;entryDx=0;entryDy=0;dashed=1;" edge="1" parent="1" source="KLcIbOPdQp3D0pGYywUL-4" target="KLcIbOPdQp3D0pGYywUL-14">
          <mxGeometry relative="1" as="geometry" />
        </mxCell>
        <mxCell id="KLcIbOPdQp3D0pGYywUL-22" style="edgeStyle=orthogonalEdgeStyle;rounded=0;orthogonalLoop=1;jettySize=auto;html=1;entryX=0;entryY=0.5;entryDx=0;entryDy=0;dashed=1;" edge="1" parent="1" source="KLcIbOPdQp3D0pGYywUL-4" target="KLcIbOPdQp3D0pGYywUL-15">
          <mxGeometry relative="1" as="geometry" />
        </mxCell>
        <mxCell id="KLcIbOPdQp3D0pGYywUL-23" style="edgeStyle=orthogonalEdgeStyle;rounded=0;orthogonalLoop=1;jettySize=auto;html=1;entryX=0;entryY=0.5;entryDx=0;entryDy=0;dashed=1;" edge="1" parent="1" source="KLcIbOPdQp3D0pGYywUL-4" target="KLcIbOPdQp3D0pGYywUL-16">
          <mxGeometry relative="1" as="geometry" />
        </mxCell>
        <mxCell id="KLcIbOPdQp3D0pGYywUL-4" value="Domain 1" style="rounded=0;whiteSpace=wrap;html=1;" vertex="1" parent="1">
          <mxGeometry x="280" y="80" width="120" height="40" as="geometry" />
        </mxCell>
        <mxCell id="KLcIbOPdQp3D0pGYywUL-5" value="Domain 2" style="rounded=0;whiteSpace=wrap;html=1;" vertex="1" parent="1">
          <mxGeometry x="280" y="160" width="120" height="40" as="geometry" />
        </mxCell>
        <mxCell id="KLcIbOPdQp3D0pGYywUL-6" value="Domain n" style="rounded=0;whiteSpace=wrap;html=1;" vertex="1" parent="1">
          <mxGeometry x="280" y="240" width="120" height="40" as="geometry" />
        </mxCell>
        <mxCell id="KLcIbOPdQp3D0pGYywUL-28" style="edgeStyle=orthogonalEdgeStyle;rounded=0;orthogonalLoop=1;jettySize=auto;html=1;" edge="1" parent="1" source="KLcIbOPdQp3D0pGYywUL-10" target="KLcIbOPdQp3D0pGYywUL-24">
          <mxGeometry relative="1" as="geometry" />
        </mxCell>
        <mxCell id="KLcIbOPdQp3D0pGYywUL-29" style="edgeStyle=orthogonalEdgeStyle;rounded=0;orthogonalLoop=1;jettySize=auto;html=1;entryX=0;entryY=0.5;entryDx=0;entryDy=0;dashed=1;" edge="1" parent="1" source="KLcIbOPdQp3D0pGYywUL-10" target="KLcIbOPdQp3D0pGYywUL-25">
          <mxGeometry relative="1" as="geometry" />
        </mxCell>
        <mxCell id="KLcIbOPdQp3D0pGYywUL-30" style="edgeStyle=orthogonalEdgeStyle;rounded=0;orthogonalLoop=1;jettySize=auto;html=1;entryX=0;entryY=0.5;entryDx=0;entryDy=0;dashed=1;" edge="1" parent="1" source="KLcIbOPdQp3D0pGYywUL-10" target="KLcIbOPdQp3D0pGYywUL-26">
          <mxGeometry relative="1" as="geometry" />
        </mxCell>
        <mxCell id="KLcIbOPdQp3D0pGYywUL-31" style="edgeStyle=orthogonalEdgeStyle;rounded=0;orthogonalLoop=1;jettySize=auto;html=1;entryX=0;entryY=0.5;entryDx=0;entryDy=0;dashed=1;" edge="1" parent="1" source="KLcIbOPdQp3D0pGYywUL-10" target="KLcIbOPdQp3D0pGYywUL-27">
          <mxGeometry relative="1" as="geometry" />
        </mxCell>
        <mxCell id="KLcIbOPdQp3D0pGYywUL-33" style="edgeStyle=orthogonalEdgeStyle;rounded=0;orthogonalLoop=1;jettySize=auto;html=1;entryX=0;entryY=0;entryDx=0;entryDy=25;entryPerimeter=0;dashed=1;" edge="1" parent="1" source="KLcIbOPdQp3D0pGYywUL-10" target="KLcIbOPdQp3D0pGYywUL-32">
          <mxGeometry relative="1" as="geometry" />
        </mxCell>
        <mxCell id="KLcIbOPdQp3D0pGYywUL-10" value="(Field quantity) rho" style="rounded=0;whiteSpace=wrap;html=1;" vertex="1" parent="1">
          <mxGeometry x="480" y="80" width="120" height="40" as="geometry" />
        </mxCell>
        <mxCell id="KLcIbOPdQp3D0pGYywUL-11" value="(Field quantity) u" style="rounded=0;whiteSpace=wrap;html=1;" vertex="1" parent="1">
          <mxGeometry x="480" y="160" width="120" height="40" as="geometry" />
        </mxCell>
        <mxCell id="KLcIbOPdQp3D0pGYywUL-12" value="(Field quantity) v" style="rounded=0;whiteSpace=wrap;html=1;" vertex="1" parent="1">
          <mxGeometry x="480" y="240" width="120" height="40" as="geometry" />
        </mxCell>
        <mxCell id="KLcIbOPdQp3D0pGYywUL-13" value="(Field quantity) p" style="rounded=0;whiteSpace=wrap;html=1;" vertex="1" parent="1">
          <mxGeometry x="480" y="320" width="120" height="40" as="geometry" />
        </mxCell>
        <mxCell id="KLcIbOPdQp3D0pGYywUL-14" value="(Field quantity) E" style="rounded=0;whiteSpace=wrap;html=1;" vertex="1" parent="1">
          <mxGeometry x="480" y="400" width="120" height="40" as="geometry" />
        </mxCell>
        <mxCell id="KLcIbOPdQp3D0pGYywUL-15" value="(Field quantity) T" style="rounded=0;whiteSpace=wrap;html=1;" vertex="1" parent="1">
          <mxGeometry x="480" y="480" width="120" height="40" as="geometry" />
        </mxCell>
        <mxCell id="KLcIbOPdQp3D0pGYywUL-16" value="(Field quantity) H" style="rounded=0;whiteSpace=wrap;html=1;" vertex="1" parent="1">
          <mxGeometry x="480" y="560" width="120" height="40" as="geometry" />
        </mxCell>
        <mxCell id="KLcIbOPdQp3D0pGYywUL-24" value="(TwoDimensionalArray) currentTimeStepBuffer" style="rounded=0;whiteSpace=wrap;html=1;" vertex="1" parent="1">
          <mxGeometry x="680" y="80" width="280" height="40" as="geometry" />
        </mxCell>
        <mxCell id="KLcIbOPdQp3D0pGYywUL-25" value="(TwoDimensionalArray) rungeKuttaBuffer" style="rounded=0;whiteSpace=wrap;html=1;" vertex="1" parent="1">
          <mxGeometry x="680" y="160" width="280" height="40" as="geometry" />
        </mxCell>
        <mxCell id="KLcIbOPdQp3D0pGYywUL-26" value="(TwoDimensionalArray) nextTimeStep" style="rounded=0;whiteSpace=wrap;html=1;" vertex="1" parent="1">
          <mxGeometry x="680" y="240" width="280" height="40" as="geometry" />
        </mxCell>
        <mxCell id="KLcIbOPdQp3D0pGYywUL-27" value="(TwoDimensionalArray) fluxBuffer" style="rounded=0;whiteSpace=wrap;html=1;" vertex="1" parent="1">
          <mxGeometry x="680" y="320" width="280" height="40" as="geometry" />
        </mxCell>
        <mxCell id="KLcIbOPdQp3D0pGYywUL-32" value="(TwoDimensionalArray) MUSCL Buffers" style="verticalLabelPosition=bottom;verticalAlign=top;html=1;shape=mxgraph.basic.layered_rect;dx=10;outlineConnect=0;whiteSpace=wrap;" vertex="1" parent="1">
          <mxGeometry x="680" y="400" width="280" height="60" as="geometry" />
        </mxCell>
        <mxCell id="KLcIbOPdQp3D0pGYywUL-34" value="&lt;h1&gt;Overview of organisation of data&lt;/h1&gt;&lt;p&gt;This diagram describes where actual field data is stored, and how it is accessed. Note that it is encouraged to keep operations as high-level as possible to ensure interoperability.&lt;/p&gt;" style="text;html=1;strokeColor=none;fillColor=none;spacing=5;spacingTop=-20;whiteSpace=wrap;overflow=hidden;rounded=0;" vertex="1" parent="1">
          <mxGeometry x="40" y="490" width="310" height="140" as="geometry" />
        </mxCell>
        <mxCell id="KLcIbOPdQp3D0pGYywUL-35" value="valve n" style="rounded=0;whiteSpace=wrap;html=1;" vertex="1" parent="1">
          <mxGeometry x="280" y="440" width="120" height="40" as="geometry" />
        </mxCell>
        <mxCell id="KLcIbOPdQp3D0pGYywUL-51" style="edgeStyle=orthogonalEdgeStyle;rounded=0;orthogonalLoop=1;jettySize=auto;html=1;entryX=0;entryY=0.5;entryDx=0;entryDy=0;" edge="1" parent="1" source="KLcIbOPdQp3D0pGYywUL-39" target="KLcIbOPdQp3D0pGYywUL-49">
          <mxGeometry relative="1" as="geometry" />
        </mxCell>
        <mxCell id="KLcIbOPdQp3D0pGYywUL-52" style="edgeStyle=orthogonalEdgeStyle;rounded=0;orthogonalLoop=1;jettySize=auto;html=1;entryX=0;entryY=0.5;entryDx=0;entryDy=0;" edge="1" parent="1" source="KLcIbOPdQp3D0pGYywUL-39" target="KLcIbOPdQp3D0pGYywUL-50">
          <mxGeometry relative="1" as="geometry" />
        </mxCell>
        <mxCell id="KLcIbOPdQp3D0pGYywUL-39" value="IValve" style="rounded=0;whiteSpace=wrap;html=1;" vertex="1" parent="1">
          <mxGeometry x="520" y="800" width="120" height="40" as="geometry" />
        </mxCell>
        <mxCell id="KLcIbOPdQp3D0pGYywUL-40" value="valve 1" style="rounded=0;whiteSpace=wrap;html=1;" vertex="1" parent="1">
          <mxGeometry x="280" y="360" width="120" height="40" as="geometry" />
        </mxCell>
        <mxCell id="KLcIbOPdQp3D0pGYywUL-55" style="edgeStyle=orthogonalEdgeStyle;rounded=0;orthogonalLoop=1;jettySize=auto;html=1;entryX=0;entryY=0.5;entryDx=0;entryDy=0;" edge="1" parent="1" source="KLcIbOPdQp3D0pGYywUL-42" target="KLcIbOPdQp3D0pGYywUL-53">
          <mxGeometry relative="1" as="geometry" />
        </mxCell>
        <mxCell id="KLcIbOPdQp3D0pGYywUL-56" style="edgeStyle=orthogonalEdgeStyle;rounded=0;orthogonalLoop=1;jettySize=auto;html=1;" edge="1" parent="1" source="KLcIbOPdQp3D0pGYywUL-42" target="KLcIbOPdQp3D0pGYywUL-54">
          <mxGeometry relative="1" as="geometry" />
        </mxCell>
        <mxCell id="KLcIbOPdQp3D0pGYywUL-42" value="ReedValve" style="rounded=0;whiteSpace=wrap;html=1;" vertex="1" parent="1">
          <mxGeometry x="600" y="920" width="120" height="40" as="geometry" />
        </mxCell>
        <mxCell id="KLcIbOPdQp3D0pGYywUL-43" value="other type of valve" style="rounded=0;whiteSpace=wrap;html=1;" vertex="1" parent="1">
          <mxGeometry x="440" y="920" width="120" height="40" as="geometry" />
        </mxCell>
        <mxCell id="KLcIbOPdQp3D0pGYywUL-44" value="" style="endArrow=classic;html=1;rounded=0;exitX=0.5;exitY=1;exitDx=0;exitDy=0;entryX=0.5;entryY=0;entryDx=0;entryDy=0;" edge="1" parent="1" source="KLcIbOPdQp3D0pGYywUL-39" target="KLcIbOPdQp3D0pGYywUL-42">
          <mxGeometry relative="1" as="geometry">
            <mxPoint x="900" y="610" as="sourcePoint" />
            <mxPoint x="1000" y="610" as="targetPoint" />
          </mxGeometry>
        </mxCell>
        <mxCell id="KLcIbOPdQp3D0pGYywUL-45" value="Inheritance" style="edgeLabel;resizable=0;html=1;align=center;verticalAlign=middle;" connectable="0" vertex="1" parent="KLcIbOPdQp3D0pGYywUL-44">
          <mxGeometry relative="1" as="geometry" />
        </mxCell>
        <mxCell id="KLcIbOPdQp3D0pGYywUL-47" value="" style="endArrow=classic;html=1;rounded=0;exitX=0.5;exitY=1;exitDx=0;exitDy=0;entryX=0.5;entryY=0;entryDx=0;entryDy=0;" edge="1" parent="1" source="KLcIbOPdQp3D0pGYywUL-39" target="KLcIbOPdQp3D0pGYywUL-43">
          <mxGeometry relative="1" as="geometry">
            <mxPoint x="620" y="890" as="sourcePoint" />
            <mxPoint x="700" y="850" as="targetPoint" />
          </mxGeometry>
        </mxCell>
        <mxCell id="KLcIbOPdQp3D0pGYywUL-48" value="Inheritance" style="edgeLabel;resizable=0;html=1;align=center;verticalAlign=middle;" connectable="0" vertex="1" parent="KLcIbOPdQp3D0pGYywUL-47">
          <mxGeometry relative="1" as="geometry" />
        </mxCell>
        <mxCell id="KLcIbOPdQp3D0pGYywUL-49" value="(Domain*) that it takes flow from" style="rounded=0;whiteSpace=wrap;html=1;" vertex="1" parent="1">
          <mxGeometry x="680" y="640" width="120" height="40" as="geometry" />
        </mxCell>
        <mxCell id="KLcIbOPdQp3D0pGYywUL-50" value="(Domain*) that it puts flow into" style="rounded=0;whiteSpace=wrap;html=1;" vertex="1" parent="1">
          <mxGeometry x="680" y="720" width="120" height="40" as="geometry" />
        </mxCell>
        <mxCell id="KLcIbOPdQp3D0pGYywUL-53" value="Beam profile" style="rounded=0;whiteSpace=wrap;html=1;" vertex="1" parent="1">
          <mxGeometry x="760" y="880" width="120" height="40" as="geometry" />
        </mxCell>
        <mxCell id="KLcIbOPdQp3D0pGYywUL-62" style="edgeStyle=orthogonalEdgeStyle;rounded=0;orthogonalLoop=1;jettySize=auto;html=1;entryX=0;entryY=0.5;entryDx=0;entryDy=0;" edge="1" parent="1" source="KLcIbOPdQp3D0pGYywUL-54" target="KLcIbOPdQp3D0pGYywUL-61">
          <mxGeometry relative="1" as="geometry" />
        </mxCell>
        <mxCell id="KLcIbOPdQp3D0pGYywUL-63" style="edgeStyle=orthogonalEdgeStyle;rounded=0;orthogonalLoop=1;jettySize=auto;html=1;entryX=0;entryY=0;entryDx=0;entryDy=20;entryPerimeter=0;" edge="1" parent="1" source="KLcIbOPdQp3D0pGYywUL-54" target="KLcIbOPdQp3D0pGYywUL-58">
          <mxGeometry relative="1" as="geometry" />
        </mxCell>
        <mxCell id="KLcIbOPdQp3D0pGYywUL-64" style="edgeStyle=orthogonalEdgeStyle;rounded=0;orthogonalLoop=1;jettySize=auto;html=1;" edge="1" parent="1" source="KLcIbOPdQp3D0pGYywUL-54" target="KLcIbOPdQp3D0pGYywUL-59">
          <mxGeometry relative="1" as="geometry" />
        </mxCell>
        <mxCell id="KLcIbOPdQp3D0pGYywUL-65" style="edgeStyle=orthogonalEdgeStyle;rounded=0;orthogonalLoop=1;jettySize=auto;html=1;" edge="1" parent="1" source="KLcIbOPdQp3D0pGYywUL-54" target="KLcIbOPdQp3D0pGYywUL-60">
          <mxGeometry relative="1" as="geometry" />
        </mxCell>
        <mxCell id="KLcIbOPdQp3D0pGYywUL-54" value="Fem Deformation" style="rounded=0;whiteSpace=wrap;html=1;" vertex="1" parent="1">
          <mxGeometry x="760" y="960" width="120" height="40" as="geometry" />
        </mxCell>
        <mxCell id="KLcIbOPdQp3D0pGYywUL-58" value="BeamSections" style="verticalLabelPosition=bottom;verticalAlign=top;html=1;shape=mxgraph.basic.layered_rect;dx=10;outlineConnect=0;whiteSpace=wrap;" vertex="1" parent="1">
          <mxGeometry x="920" y="840" width="130" height="50" as="geometry" />
        </mxCell>
        <mxCell id="KLcIbOPdQp3D0pGYywUL-59" value="node positions" style="verticalLabelPosition=bottom;verticalAlign=top;html=1;shape=mxgraph.basic.layered_rect;dx=10;outlineConnect=0;whiteSpace=wrap;" vertex="1" parent="1">
          <mxGeometry x="920" y="920" width="130" height="50" as="geometry" />
        </mxCell>
        <mxCell id="KLcIbOPdQp3D0pGYywUL-60" value="node positions in previous time step" style="verticalLabelPosition=bottom;verticalAlign=top;html=1;shape=mxgraph.basic.layered_rect;dx=10;outlineConnect=0;whiteSpace=wrap;" vertex="1" parent="1">
          <mxGeometry x="920" y="1000" width="130" height="50" as="geometry" />
        </mxCell>
        <mxCell id="KLcIbOPdQp3D0pGYywUL-61" value="(a copy of)Beam profile" style="rounded=0;whiteSpace=wrap;html=1;" vertex="1" parent="1">
          <mxGeometry x="920" y="760" width="120" height="40" as="geometry" />
        </mxCell>
        <mxCell id="KLcIbOPdQp3D0pGYywUL-66" value="&lt;h1&gt;Overview of organisation of Valves&lt;/h1&gt;&lt;p&gt;To make it so that different types of valves can be developed and implemented into the existing code easily, the actual code only communicates with a valve through an &lt;b&gt;&lt;u&gt;interface&lt;/u&gt;&lt;/b&gt;. Any type of valve must therefore be a sub-class of IValve to slot into the calculation scheme.&lt;br&gt;Currently, ReedValve is implemented. This valve contains an FEM to model its deflection.&lt;/p&gt;" style="text;html=1;strokeColor=none;fillColor=none;spacing=5;spacingTop=-20;whiteSpace=wrap;overflow=hidden;rounded=0;" vertex="1" parent="1">
          <mxGeometry x="100" y="820" width="310" height="200" as="geometry" />
        </mxCell>
        <mxCell id="KLcIbOPdQp3D0pGYywUL-67" value="todo: write documentation on IValve" style="text;html=1;strokeColor=none;fillColor=none;align=center;verticalAlign=middle;whiteSpace=wrap;rounded=0;" vertex="1" parent="1">
          <mxGeometry x="1080" y="600" width="60" height="30" as="geometry" />
        </mxCell>
      </root>
    </mxGraphModel>
  </diagram>
</mxfile>
